<mxfile host="app.diagrams.net" agent="Mozilla/5.0 (Windows NT 10.0; Win64; x64) AppleWebKit/537.36 (KHTML, like Gecko) Chrome/140.0.0.0 Safari/537.36" version="28.2.3">
  <diagram name="Page-1" id="bBM34-UDFv6e4Db87ZXK">
    <mxGraphModel dx="1042" dy="562" grid="1" gridSize="10" guides="1" tooltips="1" connect="1" arrows="1" fold="1" page="1" pageScale="1" pageWidth="850" pageHeight="1100" math="0" shadow="0">
      <root>
        <mxCell id="0" />
        <mxCell id="1" parent="0" />
        <mxCell id="xCSAPBTNfJsl-YAPdG03-3" value="" style="edgeStyle=orthogonalEdgeStyle;rounded=0;orthogonalLoop=1;jettySize=auto;html=1;" edge="1" parent="1" source="xCSAPBTNfJsl-YAPdG03-1" target="xCSAPBTNfJsl-YAPdG03-2">
          <mxGeometry relative="1" as="geometry" />
        </mxCell>
        <mxCell id="xCSAPBTNfJsl-YAPdG03-1" value="plan" style="ellipse;whiteSpace=wrap;html=1;" vertex="1" parent="1">
          <mxGeometry x="350" y="30" width="120" height="60" as="geometry" />
        </mxCell>
        <mxCell id="xCSAPBTNfJsl-YAPdG03-5" value="" style="edgeStyle=orthogonalEdgeStyle;rounded=0;orthogonalLoop=1;jettySize=auto;html=1;" edge="1" parent="1" source="xCSAPBTNfJsl-YAPdG03-2" target="xCSAPBTNfJsl-YAPdG03-4">
          <mxGeometry relative="1" as="geometry" />
        </mxCell>
        <mxCell id="xCSAPBTNfJsl-YAPdG03-2" value="develop" style="ellipse;whiteSpace=wrap;html=1;" vertex="1" parent="1">
          <mxGeometry x="350" y="170" width="120" height="60" as="geometry" />
        </mxCell>
        <mxCell id="xCSAPBTNfJsl-YAPdG03-17" value="" style="edgeStyle=orthogonalEdgeStyle;rounded=0;orthogonalLoop=1;jettySize=auto;html=1;" edge="1" parent="1" source="xCSAPBTNfJsl-YAPdG03-4" target="xCSAPBTNfJsl-YAPdG03-16">
          <mxGeometry relative="1" as="geometry" />
        </mxCell>
        <mxCell id="xCSAPBTNfJsl-YAPdG03-4" value="build" style="ellipse;whiteSpace=wrap;html=1;" vertex="1" parent="1">
          <mxGeometry x="350" y="310" width="120" height="60" as="geometry" />
        </mxCell>
        <mxCell id="xCSAPBTNfJsl-YAPdG03-9" value="" style="edgeStyle=orthogonalEdgeStyle;rounded=0;orthogonalLoop=1;jettySize=auto;html=1;" edge="1" parent="1" target="xCSAPBTNfJsl-YAPdG03-8">
          <mxGeometry relative="1" as="geometry">
            <mxPoint x="410" y="510" as="sourcePoint" />
          </mxGeometry>
        </mxCell>
        <mxCell id="xCSAPBTNfJsl-YAPdG03-11" value="" style="edgeStyle=orthogonalEdgeStyle;rounded=0;orthogonalLoop=1;jettySize=auto;html=1;" edge="1" parent="1" source="xCSAPBTNfJsl-YAPdG03-8" target="xCSAPBTNfJsl-YAPdG03-10">
          <mxGeometry relative="1" as="geometry" />
        </mxCell>
        <mxCell id="xCSAPBTNfJsl-YAPdG03-8" value="release" style="ellipse;whiteSpace=wrap;html=1;" vertex="1" parent="1">
          <mxGeometry x="350" y="590" width="120" height="60" as="geometry" />
        </mxCell>
        <mxCell id="xCSAPBTNfJsl-YAPdG03-13" value="" style="edgeStyle=orthogonalEdgeStyle;rounded=0;orthogonalLoop=1;jettySize=auto;html=1;" edge="1" parent="1" source="xCSAPBTNfJsl-YAPdG03-10" target="xCSAPBTNfJsl-YAPdG03-12">
          <mxGeometry relative="1" as="geometry" />
        </mxCell>
        <mxCell id="xCSAPBTNfJsl-YAPdG03-10" value="deploy" style="ellipse;whiteSpace=wrap;html=1;" vertex="1" parent="1">
          <mxGeometry x="350" y="730" width="120" height="60" as="geometry" />
        </mxCell>
        <mxCell id="xCSAPBTNfJsl-YAPdG03-12" value="operate" style="ellipse;whiteSpace=wrap;html=1;" vertex="1" parent="1">
          <mxGeometry x="350" y="870" width="120" height="60" as="geometry" />
        </mxCell>
        <mxCell id="xCSAPBTNfJsl-YAPdG03-16" value="test" style="ellipse;whiteSpace=wrap;html=1;" vertex="1" parent="1">
          <mxGeometry x="350" y="450" width="120" height="60" as="geometry" />
        </mxCell>
      </root>
    </mxGraphModel>
  </diagram>
</mxfile>
